<?xml version="1.0" encoding="UTF-8" standalone="no"?>
<!-- Created with Inkscape (http://www.inkscape.org/) -->

<svg
   xmlns:dc="http://purl.org/dc/elements/1.1/"
   xmlns:cc="http://creativecommons.org/ns#"
   xmlns:rdf="http://www.w3.org/1999/02/22-rdf-syntax-ns#"
   xmlns:svg="http://www.w3.org/2000/svg"
   xmlns="http://www.w3.org/2000/svg"
   xmlns:sodipodi="http://sodipodi.sourceforge.net/DTD/sodipodi-0.dtd"
   xmlns:inkscape="http://www.inkscape.org/namespaces/inkscape"
   width="54mm"
   height="54mm"
   viewBox="0 0 54 54"
   version="1.1"
   id="svg7760"
   style="shape-rendering:auto"
   inkscape:version="0.92.4 (5da689c313, 2019-01-14)"
   sodipodi:docname="hand_logo.svg">
  <defs
     id="defs7754" />
  <sodipodi:namedview
     id="base"
     pagecolor="#ffffff"
     bordercolor="#666666"
     borderopacity="1.0"
     inkscape:pageopacity="0.0"
     inkscape:pageshadow="2"
     inkscape:zoom="2.8"
     inkscape:cx="144.00665"
     inkscape:cy="71.336274"
     inkscape:document-units="mm"
     inkscape:current-layer="layer1"
     showgrid="false"
     inkscape:window-width="2400"
     inkscape:window-height="1271"
     inkscape:window-x="2391"
     inkscape:window-y="-9"
     inkscape:window-maximized="1" />
  <metadata
     id="metadata7757">
    <rdf:RDF>
      <cc:Work
         rdf:about="">
        <dc:format>image/svg+xml</dc:format>
        <dc:type
           rdf:resource="http://purl.org/dc/dcmitype/StillImage" />
        <dc:title></dc:title>
      </cc:Work>
    </rdf:RDF>
  </metadata>
  <g
     inkscape:label="Layer 1"
     inkscape:groupmode="layer"
     id="layer1"
     transform="translate(0,-243)">
    <rect
       style="opacity:1;fill:#736ced;fill-opacity:1;stroke:#736ced;stroke-width:5.06500006;stroke-linejoin:round;stroke-miterlimit:4;stroke-dasharray:none;stroke-opacity:1"
       id="rect7705"
       width="75.595245"
       height="75.75116"
       x="2.5325"
       y="132.88039"
       rx="33.74284"
       ry="27.862741" />
    <path
       id="path5546-5-7-1-0-1-47"
       style="opacity:1;fill:#ffffff;fill-opacity:1;stroke:#93ecff;stroke-width:0.26458329;stroke-linejoin:round;stroke-opacity:0"
       d="m 36.702915,139.34364 c -1.65663,-0.0133 -3.47373,0.33805 -4.89785,0.99516 -0.87209,0.4024 -2.98114,2.42244 -3.28772,3.14896 -0.154509,0.36612 -0.277781,0.46657 -0.470181,0.38241 -0.47339,-0.20708 -3.836249,-0.25874 -4.747879,-0.073 -1.0206,0.20798 -2.709,0.95237 -3.03378,1.33761 -0.12163,0.1443 -0.27959,0.22685 -0.35115,0.18346 -0.22172,-0.13449 -1.67442,1.59989 -2.22672,2.65851 -0.3214,0.61595 -0.60117,1.47547 -0.72056,2.21495 l -0.19521,1.20838 -1.17725,0.19446 c -1.77552,0.29287 -4.16357,1.49114 -5.12758,2.5729 -1.3163603,1.47713 -2.0542003,4.21736 -1.7291703,6.42226 0.0789,0.53551 0.1445,1.04989 0.1468,1.14315 9.79e-4,0.0932 -0.59908,0.47641 -1.33516,0.85165 -1.48598,0.75751 -2.1203,1.2804 -3.07148,2.53091 -1.75545,2.30802 -1.8489402,5.36105 -0.26028,8.51614 0.61263,1.21667 0.90863,1.54981 4.24594,4.78418 1.9730293,1.91212 4.8668703,4.60366 6.4306103,5.98112 3.87935,3.41726 4.85715,4.4059 6.64011,6.71132 0.84408,1.09137 1.61557,2.0561 1.71449,2.14359 0.0989,0.0876 0.60379,0.6431 1.12209,1.23488 0.51831,0.59176 1.10475,1.16527 1.30304,1.27403 0.1983,0.10887 0.84331,0.55645 1.433159,0.99433 1.170551,0.869 1.966982,1.3031 3.396441,1.8509 1.69918,0.63435 3.902199,-3.27912 2.014849,-4.34104 -1.35305,-0.58308 -2.395429,-1.26617 -3.623,-2.40778 -0.76018,-0.7164 -1.7227,-1.74117 -2.13904,-2.27732 -2.415599,-3.11109 -4.815409,-5.57859 -9.114429,-9.37227 -1.38121,-1.21884 -3.81161,-3.43373 -5.40097,-4.92158 -2.3274003,-2.17873 -2.9852103,-2.8905 -3.3801703,-3.65856 -0.56791,-1.10407 -0.7512,-2.35739 -0.46821,-3.1991 0.40863,-1.21539 1.8992703,-2.15799 3.4214403,-2.16399 1.605999,-0.006 2.17926,0.40651 5.69776,4.10049 1.72385,1.80979 4.03102,4.21751 5.1268,5.35046 1.02323,1.13293 2.17547,1.87758 2.13332,1.97361 0.96221,0.43042 2.444839,-1.05466 1.55038,-2.31973 l -1.94462,-2.11548 c -1.06956,-1.1635 -2.09074,-2.26246 -2.26918,-2.44244 -0.32883,-0.33162 -0.85118,-0.91923 -2.21284,-2.4881 -0.41429,-0.47732 -1.07143,-1.23391 -1.46015,-1.68129 -0.6359,-0.73188 -2.22468,-2.48872 -3.43016,-3.7931 -1.0497,-1.13581 -1.65554,-3.26724 -1.26177,-4.43846 0.10508,-0.31252 0.47737,-0.82181 0.82729,-1.13215 0.84426,-0.74871 1.81845,-1.12918 2.75802,-1.13907 0.93956,-0.01 1.8446,0.3508 2.5505,1.08322 0.35975,0.37328 1.91415,2.32667 3.45437,4.34103 1.54024,2.01433 2.84773,3.69838 2.90561,3.74214 0.058,0.0438 0.575829,0.68103 1.15067,1.41629 0.574821,0.73528 1.283301,1.73566 1.751899,2.3141 l 1.391492,1.62805 c 0.807288,1.15568 3.169438,-0.37481 2.403538,-1.65357 l -0.455859,-0.75893 c -0.289771,-0.48247 -1.22646,-1.62036 -1.946589,-2.62754 -0.72018,-1.00718 -1.836682,-2.54794 -2.481461,-3.42373 -2.53454,-3.44264 -5.29297,-7.41531 -5.72316,-8.24298 -0.48201,-0.92742 -0.64892,-2.06782 -0.4432,-3.0291 0.14211,-0.66392 0.32996,-0.97539 0.93878,-1.55695 0.71551,-0.68351 1.56477,-1.04812 2.44138,-1.08077 0.68182,-0.0254 1.38036,0.15009 2.045009,0.53244 1.040842,0.59877 1.48612,1.2255 3.850751,5.41568 0.9667,1.71293 2.024359,3.51807 4.617321,7.88218 1.066779,1.7954 2.08797,3.51509 2.26958,3.82163 1.410769,0.65514 2.53388,-0.618 2.489419,-1.49008 -1.6964,-3.15164 -6.855499,-13.28189 -7.30989,-14.35336 -0.823801,-1.94474 -0.826121,-3.72279 -0.005,-4.74708 0.18025,-0.22497 0.736999,-0.60551 1.236771,-0.84554 1.744678,-0.83792 3.62635,-0.49464 4.801028,0.87571 0.42672,0.49781 2.158432,4.23103 3.29565,7.10472 0.381241,0.96339 1.326261,3.22076 2.09976,5.01615 0.77352,1.7954 1.990051,4.66186 2.703661,6.36967 0.713639,1.70783 1.505791,3.42752 1.76013,3.82164 0.254331,0.39409 1.10054,1.97057 1.88073,3.50322 1.11992,2.20001 1.402651,2.95446 1.629521,3.51373 l 0.38621,0.6722 c 0.520319,0.61917 1.81452,2.06464 3.270199,1.2621 2.04234,-1.47649 1.089031,-0.58462 4.732769,-5.17039 1.23789,-1.73025 2.510211,-3.36963 2.827462,-3.64306 0.693118,-0.59737 2.26586,-1.35094 3.112738,-1.49132 0.927801,-0.15388 1.824461,0.16087 2.72587,0.95643 1.807461,1.59433 1.81093,3.48186 0.01151,5.65417 -1.195459,1.44324 -4.769569,6.10246 -5.260099,6.85726 -0.25169,0.38729 -0.622512,0.88381 -0.824111,1.1032 -0.22094,0.24047 -0.58941,1.15742 -0.92728,2.30872 -1.15003,3.91882 -2.47605,6.57987 -4.22293,8.47413 -1.093901,0.75058 0.230479,5.34333 3.573399,3.59824 1.088512,-1.03843 3.106611,-4.32008 3.954711,-6.43082 0.525669,-1.30835 1.565609,-4.30356 1.68909,-4.8645 0.06,-0.2728 0.269909,-0.66324 0.466209,-0.86797 0.19631,-0.20471 0.6853,-0.81246 1.086792,-1.35065 0.401489,-0.53821 1.27781,-1.6812 1.946989,-2.53988 2.75521,-3.5357 3.452191,-4.51528 4.023331,-5.65296 0.582049,-1.15963 0.601078,-1.2533 0.653069,-3.2256 0.0459,-1.74208 0.004,-2.17723 -0.294011,-3.05601 -0.688128,-2.0298 -2.065639,-3.65012 -3.926549,-4.61824 -1.404871,-0.7309 -2.661499,-1.04477 -4.180469,-1.04082 -1.582672,0.003 -2.833442,0.30291 -4.585571,1.09952 -1.634299,0.74303 -3.402449,2.2652 -4.637569,3.99286 -0.40726,0.56967 -0.86056,1.15309 -1.00743,1.29644 -0.146952,0.14331 -0.480041,0.59126 -0.739992,0.99515 -0.259929,0.40391 -0.51263,0.7345 -0.56184,0.73465 -0.0491,1.4e-4 -0.254828,-0.34023 -0.457099,-0.75625 -0.20228,-0.41597 -0.8294,-1.58038 -1.393511,-2.58757 -0.564089,-1.00717 -1.076168,-2.01028 -1.138359,-2.22923 -0.154421,-0.54436 -1.025221,-2.80345 -1.381191,-3.58313 -0.15993,-0.35031 -0.65745,-1.49665 -1.10544,-2.54763 -0.9599,-2.25179 -1.90282,-4.42601 -2.21007,-5.09565 -0.120538,-0.26275 -0.60031,-1.37336 -1.066138,-2.46812 -0.465812,-1.09477 -1.057982,-2.44341 -1.315731,-2.99689 -0.25772,-0.55349 -0.46859,-1.04235 -0.46859,-1.08648 0,-0.0441 -0.353991,-0.8096 -0.786421,-1.70086 -1.33511,-2.75163 -3.28933,-4.47905 -5.79023,-5.11848 -0.634741,-0.16229 -1.354661,-0.24384 -2.107681,-0.24992 z"
       inkscape:connector-curvature="0"
       sodipodi:nodetypes="cccccccccccccccccccccccccccccsccccccccccccccccccccccsccccccccccccccccccccccccccccccccccccccccccccccccccccccccscccc" />
    <rect
       style="opacity:1;fill:#736ced;fill-opacity:1;stroke:#736ced;stroke-width:5.06500006;stroke-linejoin:round;stroke-miterlimit:4;stroke-dasharray:none;stroke-opacity:1"
       id="rect7705-4"
       height="48.935001"
       x="2.5325"
       y="245.5325"
       rx="18.010191"
       ry="17.182579"
       width="48.935001" />
    <path
       id="path5546-5-7-1-0-1-47-4"
       style="opacity:1;fill:#ffffff;fill-opacity:1;stroke:#93ecff;stroke-width:0.26458329;stroke-linejoin:round;stroke-opacity:0"
       d="m 25.198758,250.96618 c -1.115405,-0.008 -2.33885,0.21837 -3.297707,0.64286 -0.587175,0.25995 -2.007183,1.56489 -2.213603,2.03422 -0.104032,0.23651 -0.187032,0.3014 -0.316569,0.24704 -0.318737,-0.13377 -2.582934,-0.16715 -3.196729,-0.0472 -0.687161,0.13435 -1.823955,0.61522 -2.042627,0.86409 -0.08189,0.0932 -0.188249,0.14655 -0.236432,0.11851 -0.149283,-0.0869 -1.127378,1.03353 -1.499241,1.71739 -0.216392,0.39791 -0.404764,0.95315 -0.485143,1.43086 l -0.131435,0.78061 -0.792639,0.12561 c -1.1954533,0.1892 -2.803311,0.96328 -3.452375,1.66209 -0.8862985,0.95422 -1.3830864,2.7244 -1.1642488,4.14876 0.053168,0.34594 0.097297,0.67823 0.098846,0.73847 6.683e-4,0.0602 -0.4033632,0.30776 -0.898959,0.55016 -1.0005026,0.48935 -1.4275875,0.82714 -2.0680104,1.63496 -1.1819392,1.49098 -1.2448894,3.46322 -0.1752495,5.5014 0.412483,0.78596 0.611776,1.00117 2.858769,3.09056 1.3284371,1.23523 3.2768474,2.97395 4.3297017,3.86379 2.611955,2.20754 3.270304,2.84619 4.47076,4.33549 0.568309,0.70501 1.087757,1.32823 1.154355,1.38476 0.06657,0.0566 0.40653,0.41543 0.755497,0.79772 0.348976,0.38227 0.74383,0.75276 0.877335,0.82302 0.133514,0.0703 0.567796,0.35947 0.964938,0.64234 0.788131,0.56137 1.324364,0.84179 2.286812,1.19567 1.144042,0.40979 2.627332,-2.1183 1.356589,-2.8043 -0.911004,-0.37667 -1.612835,-0.81794 -2.43935,-1.55541 -0.511826,-0.4628 -1.159888,-1.1248 -1.440207,-1.47116 -1.626409,-2.00974 -3.242196,-3.60374 -6.136704,-6.05444 -0.929964,-0.78737 -2.5663383,-2.21818 -3.6364478,-3.17933 -1.5670288,-1.40745 -2.0099339,-1.86725 -2.2758581,-2.36342 -0.3823654,-0.71322 -0.505777,-1.52287 -0.3152382,-2.0666 0.2751221,-0.78514 1.2787661,-1.39407 2.3036347,-1.39794 1.0813181,-0.004 1.4672861,0.26261 3.8362814,2.64891 1.160654,1.16911 2.714064,2.7245 3.451844,3.45638 0.688937,0.73186 1.464736,1.21291 1.436359,1.27494 0.647854,0.27805 1.646103,-0.6813 1.043864,-1.49854 l -1.3093,-1.36659 c -0.720134,-0.75161 -1.407687,-1.46154 -1.527835,-1.5778 -0.221396,-0.21423 -0.573096,-0.59383 -1.489893,-1.6073 -0.278943,-0.30836 -0.721387,-0.79711 -0.983109,-1.08612 -0.428154,-0.4728 -1.497873,-1.6077 -2.309516,-2.45032 -0.7067583,-0.73373 -1.1146643,-2.11064 -0.8495403,-2.86724 0.07075,-0.20189 0.3214083,-0.53089 0.5570053,-0.73137 0.568441,-0.48365 1.224362,-0.72944 1.85697,-0.73583 0.6326,-0.007 1.241957,0.22662 1.717233,0.69976 0.242221,0.24113 1.288792,1.50302 2.325816,2.80429 1.037033,1.30125 1.917362,2.38914 1.956329,2.41741 0.03907,0.0282 0.387708,0.43994 0.774747,0.91492 0.387021,0.47499 0.864037,1.12123 1.179545,1.4949 l 0.936883,1.05171 c 0.543544,0.74657 2.133971,-0.24212 1.618292,-1.06819 l -0.306929,-0.49028 c -0.195098,-0.31167 -0.825765,-1.04674 -1.310632,-1.69737 -0.484892,-0.65064 -1.236622,-1.64598 -1.670756,-2.21172 -1.706495,-2.22394 -3.563734,-4.79027 -3.853372,-5.32494 -0.32454,-0.59911 -0.436917,-1.3358 -0.298407,-1.95679 0.09568,-0.42889 0.222161,-0.6301 0.632077,-1.00578 0.481751,-0.44155 1.05355,-0.67709 1.643772,-0.69817 0.459064,-0.0164 0.929389,0.0969 1.376889,0.34395 0.700797,0.3868 1.000598,0.79167 2.592697,3.49851 0.650874,1.10654 1.362993,2.27265 3.108819,5.09186 0.718255,1.15982 1.405826,2.27074 1.528097,2.46875 0.949864,0.42323 1.706053,-0.39921 1.676116,-0.96258 -1.142179,-2.03594 -4.615779,-8.58005 -4.921715,-9.27222 -0.554665,-1.25629 -0.556223,-2.40491 -0.0035,-3.06659 0.121368,-0.14534 0.496224,-0.39116 0.832713,-0.54622 1.17469,-0.54129 2.441602,-0.31954 3.23251,0.5657 0.287314,0.32158 1.453266,2.73324 2.218945,4.58963 0.256693,0.62235 0.892964,2.0806 1.413759,3.24041 0.520807,1.15983 1.339891,3.01155 1.820363,4.11479 0.480487,1.10325 1.013841,2.21417 1.18509,2.46876 0.171236,0.25459 0.740991,1.27299 1.266286,2.26307 0.754036,1.42121 0.9444,1.90857 1.097147,2.26986 l 0.260034,0.43424 c 0.350332,0.39998 1.221706,1.33375 2.201811,0.81531 1.375098,-0.9538 0.733238,-0.37766 3.186556,-3.34005 0.833467,-1.11773 1.69011,-2.17677 1.903718,-2.35341 0.466669,-0.38589 1.525589,-0.8727 2.095785,-0.96338 0.624691,-0.0994 1.228408,0.10392 1.83532,0.61785 1.216957,1.02993 1.219289,2.24927 0.0079,3.65258 -0.804899,0.93232 -3.211329,3.94216 -3.541604,4.42976 -0.169463,0.25019 -0.419132,0.57094 -0.554865,0.71266 -0.148761,0.15535 -0.396846,0.7477 -0.624333,1.49143 -0.774312,2.53154 -1.667119,4.25057 -2.84328,5.47426 -0.736519,0.48488 0.155182,3.45177 2.405953,2.32445 0.732891,-0.67083 2.091663,-2.79075 2.662688,-4.15429 0.353927,-0.84519 1.054116,-2.78009 1.137252,-3.14245 0.04038,-0.17623 0.181734,-0.42845 0.313899,-0.56071 0.132177,-0.13224 0.461415,-0.52485 0.731732,-0.87251 0.270321,-0.34768 0.860341,-1.08605 1.310903,-1.64075 1.855065,-2.28405 2.324336,-2.91686 2.708886,-3.65181 0.391896,-0.7491 0.404705,-0.80962 0.439713,-2.08372 0.03089,-1.12538 0.0026,-1.40648 -0.197961,-1.97416 -0.463312,-1.31126 -1.390789,-2.35797 -2.643726,-2.98338 -0.945889,-0.47216 -1.791975,-0.67492 -2.814695,-0.67236 -1.065602,0.002 -1.907737,0.19568 -3.087439,0.71029 -1.100366,0.47999 -2.290851,1.4633 -3.122457,2.57937 -0.274207,0.36801 -0.579414,0.7449 -0.678293,0.83749 -0.09895,0.0926 -0.323211,0.38196 -0.498232,0.64287 -0.175015,0.26093 -0.345158,0.47448 -0.378285,0.47458 -0.03307,10e-5 -0.171577,-0.21978 -0.307765,-0.48854 -0.136193,-0.26871 -0.55843,-1.02092 -0.938246,-1.67155 -0.379801,-0.65064 -0.724583,-1.29864 -0.766456,-1.44009 -0.10397,-0.35164 -0.690277,-1.81101 -0.929947,-2.31468 -0.107678,-0.2263 -0.442659,-0.96683 -0.744288,-1.64576 -0.646298,-1.45465 -1.28116,-2.85919 -1.488023,-3.29177 -0.08119,-0.16974 -0.404192,-0.88719 -0.717827,-1.5944 -0.313629,-0.70722 -0.712338,-1.57844 -0.885881,-1.93599 -0.173519,-0.35754 -0.315499,-0.67334 -0.315499,-0.70186 0,-0.0285 -0.238339,-0.52299 -0.52949,-1.09874 -0.898924,-1.77755 -2.214691,-2.89345 -3.898536,-3.30652 -0.427371,-0.10484 -0.91209,-0.15752 -1.419095,-0.16145 z"
       inkscape:connector-curvature="0"
       sodipodi:nodetypes="cccccccccccccccccccccccccccccsccccccccccccccccccccccsccccccccccccccccccccccccccccccccccccccccccccccccccccccccscccc" />
  </g>
</svg>
